<svg version="1.1" viewBox="0.0 0.0 576.0 576.0" fill="none" stroke="none" stroke-linecap="square" stroke-miterlimit="10" xmlns:xlink="http://www.w3.org/1999/xlink" xmlns="http://www.w3.org/2000/svg"><clipPath id="p.0"><path d="m0 0l576.0 0l0 576.0l-576.0 0l0 -576.0z" clip-rule="nonzero"/></clipPath><g clip-path="url(#p.0)"><path fill="#000000" fill-opacity="0.0" d="m0 0l576.0 0l0 576.0l-576.0 0z" fill-rule="evenodd"/><path fill="#a4c2f4" d="m353.343 382.1763l-50.295197 -43.12793l120.81488 -241.65948l50.295197 43.127914z" fill-rule="evenodd"/><path stroke="#000000" stroke-width="2.0" stroke-linejoin="round" stroke-linecap="butt" d="m353.343 382.1763l-50.295197 -43.12793l120.81488 -241.65948l50.295197 43.127914z" fill-rule="evenodd"/><path fill="#a4c2f4" d="m219.32199 382.1763l50.295197 -43.12793l-120.81488 -241.65948l-50.295197 43.127914z" fill-rule="evenodd"/><path stroke="#000000" stroke-width="2.0" stroke-linejoin="round" stroke-linecap="butt" d="m219.32199 382.1763l50.295197 -43.12793l-120.81488 -241.65948l-50.295197 43.127914z" fill-rule="evenodd"/><defs><linearGradient id="p.1" gradientUnits="userSpaceOnUse" gradientTransform="matrix(-12.085166010595472 12.085166010595499 -12.085166010595499 -12.085166010595472 0.0 0.0)" spreadMethod="pad" x1="6.800420134202172" y1="-22.086098232693004" x2="15.346031850352405" y2="-30.631492190870038"><stop offset="0.0" stop-color="#bfbfbf"/><stop offset="0.47" stop-color="#666666"/><stop offset="0.8" stop-color="#ff9900"/><stop offset="1.0" stop-color="#a4c2f4"/></linearGradient></defs><path fill="url(#p.1)" d="m235.75662 503.3997l0 0c-28.114395 -28.786469 -27.645767 -74.89114 1.0479736 -103.10013c28.693726 -28.209015 74.79971 -27.89215 103.10303 0.7085571c28.303314 28.600708 28.138245 74.70746 -0.36914062 103.1048l-51.53784 -51.73758z" fill-rule="evenodd"/><path stroke="#000000" stroke-width="2.0" stroke-linejoin="round" stroke-linecap="butt" d="m235.75662 503.3997l0 0c-28.114395 -28.786469 -27.645767 -74.89114 1.0479736 -103.10013c28.693726 -28.209015 74.79971 -27.89215 103.10303 0.7085571c28.303314 28.600708 28.138245 74.70746 -0.36914062 103.1048l-51.53784 -51.73758z" fill-rule="evenodd"/><g filter="url(#shadowFilter-p.2)"><use xlink:href="#p.2" transform="matrix(1.0 0.0 0.0 1.0 0.0 12.0)"/></g><defs><filter id="shadowFilter-p.2" filterUnits="userSpaceOnUse"><feGaussianBlur in="SourceAlpha" stdDeviation="2.0" result="blur"/><feComponentTransfer in="blur" color-interpolation-filters="sRGB"><feFuncR type="linear" slope="0" intercept="0.0"/><feFuncG type="linear" slope="0" intercept="0.0"/><feFuncB type="linear" slope="0" intercept="0.0"/><feFuncA type="linear" slope="0.5" intercept="0"/></feComponentTransfer></filter></defs><g id="p.2"><defs><linearGradient id="p.3" gradientUnits="userSpaceOnUse" gradientTransform="matrix(20.39840405629889 0.0 0.0 20.39840405629889 0.0 0.0)" spreadMethod="pad" x1="11.411267906100171" y1="2.9891237206691925" x2="11.411194523731728" y2="23.38752777683609"><stop offset="0.0" stop-color="#dfe9fb"/><stop offset="1.0" stop-color="#6e9be7"/></linearGradient></defs><path fill="url(#p.3)" d="m232.77165 269.021l0 0c0 -114.90132 24.726578 -208.04724 55.228348 -208.04724l0 0c14.647461 0 28.695007 21.919197 39.052338 60.935623c10.35733 39.016434 16.175995 91.93407 16.175995 147.11162l0 0c0 114.90134 -24.726562 208.04724 -55.228333 208.04724l0 0c-14.647461 0 -28.695007 -21.91919 -39.052338 -60.935608c-10.35733 -39.01645 -16.17601 -91.93408 -16.17601 -147.11163z" fill-rule="evenodd"/><path stroke="#000000" stroke-width="2.0" stroke-linejoin="round" stroke-linecap="butt" d="m232.77165 269.021l0 0c0 -114.90132 24.726578 -208.04724 55.228348 -208.04724l0 0c14.647461 0 28.695007 21.919197 39.052338 60.935623c10.35733 39.016434 16.175995 91.93407 16.175995 147.11162l0 0c0 114.90134 -24.726562 208.04724 -55.228333 208.04724l0 0c-14.647461 0 -28.695007 -21.91919 -39.052338 -60.935608c-10.35733 -39.01645 -16.17601 -91.93408 -16.17601 -147.11163z" fill-rule="evenodd"/></g><defs><radialGradient id="p.4" gradientUnits="userSpaceOnUse" gradientTransform="matrix(9.006560712490765 0.0 0.0 9.006560712490765 0.0 0.0)" spreadMethod="pad" cx="31.976690014489847" cy="17.54247602072621" fx="31.976690014489847" fy="17.54247602072621" r="9.006560325622559"><stop offset="0.0" stop-color="#8c8c8c"/><stop offset="1.0" stop-color="#404040"/></radialGradient></defs><path fill="url(#p.4)" d="m252.67717 157.99738l0 0c0 -40.329834 15.81456 -73.02362 35.32283 -73.02362l0 0c9.368195 0 18.352692 7.693535 24.97702 21.388123c6.624298 13.694588 10.345825 32.268433 10.345825 51.635498l0 0c0 40.329834 -15.814575 73.02362 -35.322845 73.02362l0 0c-19.50827 0 -35.32283 -32.693787 -35.32283 -73.02362z" fill-rule="evenodd"/><path stroke="#000000" stroke-width="2.0" stroke-linejoin="round" stroke-linecap="butt" d="m252.67717 157.99738l0 0c0 -40.329834 15.81456 -73.02362 35.32283 -73.02362l0 0c9.368195 0 18.352692 7.693535 24.97702 21.388123c6.624298 13.694588 10.345825 32.268433 10.345825 51.635498l0 0c0 40.329834 -15.814575 73.02362 -35.322845 73.02362l0 0c-19.50827 0 -35.32283 -32.693787 -35.32283 -73.02362z" fill-rule="evenodd"/><defs><linearGradient id="p.5" gradientUnits="userSpaceOnUse" gradientTransform="matrix(13.293774876251698 0.0 0.0 13.293774876251698 0.0 0.0)" spreadMethod="pad" x1="21.295859516205958" y1="21.662495387725023" x2="21.295811699635003" y2="34.95627026389072"><stop offset="0.0" stop-color="#d4e5f5"/><stop offset="1.0" stop-color="#70a4d5"/></linearGradient></defs><path fill="url(#p.5)" d="m283.10236 376.3386l0 0c0 -48.801117 2.192749 -88.36221 4.897644 -88.36221l0 0c1.2989197 0 2.5446777 9.30957 3.4631653 25.880676c0.91848755 16.571136 1.4344788 39.046417 1.4344788 62.481537l0 0c0 48.801086 -2.192749 88.36218 -4.897644 88.36218l0 0c-1.2989197 0 -2.5446777 -9.30954 -3.4631653 -25.880676c-0.91848755 -16.571136 -1.4344788 -39.046417 -1.4344788 -62.481506z" fill-rule="evenodd"/><path stroke="#000000" stroke-width="2.0" stroke-linejoin="round" stroke-linecap="butt" d="m283.10236 376.3386l0 0c0 -48.801117 2.192749 -88.36221 4.897644 -88.36221l0 0c1.2989197 0 2.5446777 9.30957 3.4631653 25.880676c0.91848755 16.571136 1.4344788 39.046417 1.4344788 62.481537l0 0c0 48.801086 -2.192749 88.36218 -4.897644 88.36218l0 0c-1.2989197 0 -2.5446777 -9.30954 -3.4631653 -25.880676c-0.91848755 -16.571136 -1.4344788 -39.046417 -1.4344788 -62.481506z" fill-rule="evenodd"/><g filter="url(#shadowFilter-p.6)"><use xlink:href="#p.6" transform="matrix(1.0 0.0 0.0 1.0 -1.8793853018372508 0.6840404199474959)"/></g><defs><filter id="shadowFilter-p.6" filterUnits="userSpaceOnUse"><feGaussianBlur in="SourceAlpha" stdDeviation="6.0" result="blur"/><feComponentTransfer in="blur" color-interpolation-filters="sRGB"><feFuncR type="linear" slope="0" intercept="0.0"/><feFuncG type="linear" slope="0" intercept="0.0"/><feFuncB type="linear" slope="0" intercept="0.0"/><feFuncA type="linear" slope="0.5" intercept="0"/></feComponentTransfer></filter></defs><g id="p.6"><defs><linearGradient id="p.7" gradientUnits="userSpaceOnUse" gradientTransform="matrix(-15.22706246599656 2.564007081803736 2.564007081803736 15.22706246599656 0.0 0.0)" spreadMethod="pad" x1="-30.221409152914884" y1="6.424998396355045" x2="-30.22146492630037" y2="21.652060862249463"><stop offset="0.0" stop-color="#dfe9fb"/><stop offset="1.0" stop-color="#6e9be7"/></linearGradient></defs><path fill="url(#p.7)" d="m407.32266 198.76907c18.990326 51.420364 49.241608 75.034454 70.85623 55.310272c21.614655 -19.724167 27.959656 -76.73372 14.861633 -133.53104c-13.098022 -56.79731 -41.6196 -95.95262 -66.80487 -91.71181z" fill-rule="evenodd"/><path stroke="#000000" stroke-width="2.0" stroke-linejoin="round" stroke-linecap="butt" d="m407.32266 198.76907c18.990326 51.420364 49.241608 75.034454 70.85623 55.310272c21.614655 -19.724167 27.959656 -76.73372 14.861633 -133.53104c-13.098022 -56.79731 -41.6196 -95.95262 -66.80487 -91.71181z" fill-rule="evenodd"/></g><g filter="url(#shadowFilter-p.8)"><use xlink:href="#p.8" transform="matrix(1.0 0.0 0.0 1.0 3.018838320209975 2.6242359580052437)"/></g><defs><filter id="shadowFilter-p.8" filterUnits="userSpaceOnUse"><feGaussianBlur in="SourceAlpha" stdDeviation="7.0" result="blur"/><feComponentTransfer in="blur" color-interpolation-filters="sRGB"><feFuncR type="linear" slope="0" intercept="0.0"/><feFuncG type="linear" slope="0" intercept="0.0"/><feFuncB type="linear" slope="0" intercept="0.0"/><feFuncA type="linear" slope="0.5" intercept="0"/></feComponentTransfer></filter></defs><g id="p.8"><defs><linearGradient id="p.9" gradientUnits="userSpaceOnUse" gradientTransform="matrix(15.227062538607404 2.564007094146864 -2.564007094146864 15.227062538607404 0.0 0.0)" spreadMethod="pad" x1="6.5629412186397245" y1="0.23107031765679245" x2="6.562886109223378" y2="15.45813285616447"><stop offset="0.0" stop-color="#dfe9fb"/><stop offset="1.0" stop-color="#6e9be7"/></linearGradient></defs><path fill="url(#p.9)" d="m168.67621 198.76907c-18.990341 51.420364 -49.2416 75.034454 -70.85625 55.310272c-21.614647 -19.724167 -27.95964 -76.73372 -14.86161 -133.53104c13.098022 -56.79731 41.6196 -95.95262 66.80486 -91.71181z" fill-rule="evenodd"/><path stroke="#000000" stroke-width="2.0" stroke-linejoin="round" stroke-linecap="butt" d="m168.67621 198.76907c-18.990341 51.420364 -49.2416 75.034454 -70.85625 55.310272c-21.614647 -19.724167 -27.95964 -76.73372 -14.86161 -133.53104c13.098022 -56.79731 41.6196 -95.95262 66.80486 -91.71181z" fill-rule="evenodd"/></g></g></svg>