<svg version="1.1" viewBox="0.0 0.0 60.0 60.0" fill="none" stroke="none" stroke-linecap="square" stroke-miterlimit="10" xmlns:xlink="http://www.w3.org/1999/xlink" xmlns="http://www.w3.org/2000/svg"><clipPath id="p.0"><path d="m0 0l60.0 0l0 60.0l-60.0 0l0 -60.0z" clip-rule="nonzero"/></clipPath><g clip-path="url(#p.0)"><path fill="#000000" fill-opacity="0.0" d="m0 0l60.0 0l0 60.0l-60.0 0z" fill-rule="evenodd"/><defs><linearGradient id="p.1" gradientUnits="userSpaceOnUse" gradientTransform="matrix(6.054871687274343 0.0 0.0 6.054871687274343 0.0 0.0)" spreadMethod="pad" x1="3.7582803876154154" y1="3.854504282879673" x2="3.758258374907695" y2="9.909375970114002"><stop offset="0.0" stop-color="#dddddd"/><stop offset="0.78" stop-color="#666666"/><stop offset="1.0" stop-color="#00ff00"/></linearGradient></defs><path fill="url(#p.1)" d="m22.755905 51.220448l3.6220474 0l0 -27.881865l7.244095 0l0 27.881865l3.6220474 0l-7.244095 8.779552z" fill-rule="evenodd"/><path stroke="#000000" stroke-width="1.0" stroke-linejoin="round" stroke-linecap="butt" d="m22.755905 51.220448l3.6220474 0l0 -27.881865l7.244095 0l0 27.881865l3.6220474 0l-7.244095 8.779552z" fill-rule="evenodd"/><defs><radialGradient id="p.2" gradientUnits="userSpaceOnUse" gradientTransform="matrix(5.600378089387759 0.0 0.0 5.600378089387759 0.0 0.0)" spreadMethod="pad" cx="5.356781188907129" cy="3.17516995230497" fx="5.356781188907129" fy="3.17516995230497" r="5.600378036499023"><stop offset="0.0" stop-color="#f5d0d0"/><stop offset="1.0" stop-color="#d96868"/></radialGradient></defs><path fill="url(#p.2)" d="m0 17.782152l0 0c-7.275958E-15 -5.0531883 13.4314575 -9.149607 30.0 -9.149607l0 0c16.568542 0 30.0 4.0964184 30.0 9.149607l0 0c0 5.0531883 -13.4314575 9.149607 -30.0 9.149607l0 0c-16.568542 0 -30.0 -4.0964184 -30.0 -9.149607z" fill-rule="evenodd"/><path stroke="#000000" stroke-width="1.0" stroke-linejoin="round" stroke-linecap="butt" d="m0 17.782152l0 0c-7.275958E-15 -5.0531883 13.4314575 -9.149607 30.0 -9.149607l0 0c16.568542 0 30.0 4.0964184 30.0 9.149607l0 0c0 5.0531883 -13.4314575 9.149607 -30.0 9.149607l0 0c-16.568542 0 -30.0 -4.0964184 -30.0 -9.149607z" fill-rule="evenodd"/><defs><linearGradient id="p.3" gradientUnits="userSpaceOnUse" gradientTransform="matrix(3.964421915675132 0.0 0.0 3.964421915675132 0.0 0.0)" spreadMethod="pad" x1="3.884948456735275" y1="-2.6660208096847143E-5" x2="3.884934232861809" y2="3.964395255441518"><stop offset="0.0" stop-color="#f5d0d0"/><stop offset="1.0" stop-color="#d96868"/></linearGradient></defs><path fill="url(#p.3)" d="m15.401575 15.716536l3.9291344 -15.716536l21.338583 0l3.9291344 15.716536z" fill-rule="evenodd"/><path stroke="#000000" stroke-width="1.0" stroke-linejoin="round" stroke-linecap="butt" d="m15.401575 15.716536l3.9291344 -15.716536l21.338583 0l3.9291344 15.716536z" fill-rule="evenodd"/><path fill="#cc4125" d="m59.02362 25.212599l0 0c0 5.705492 -12.994316 10.330709 -29.02362 10.330709c-16.029305 0 -29.023623 -4.6252174 -29.023623 -10.330709l0 0c6.8515477 3.251665 17.604376 5.165354 29.023623 5.165354c11.419247 0 22.172073 -1.9136887 29.02362 -5.165354z" fill-rule="evenodd"/><path stroke="#000000" stroke-width="1.0" stroke-linejoin="round" stroke-linecap="butt" d="m59.02362 25.212599l0 0c0 5.705492 -12.994316 10.330709 -29.02362 10.330709c-16.029305 0 -29.023623 -4.6252174 -29.023623 -10.330709l0 0c6.8515477 3.251665 17.604376 5.165354 29.023623 5.165354c11.419247 0 22.172073 -1.9136887 29.02362 -5.165354z" fill-rule="evenodd"/><path fill="#a61c00" d="m50.31496 35.54331l0 0c0 4.000801 -9.095318 7.244095 -20.31496 7.244095c-11.219643 0 -20.31496 -3.2432938 -20.31496 -7.244095l0 0c4.7957115 2.2801323 12.322107 3.6220474 20.31496 3.6220474c7.9928513 0 15.519249 -1.3419151 20.31496 -3.6220474z" fill-rule="evenodd"/><path stroke="#000000" stroke-width="1.0" stroke-linejoin="round" stroke-linecap="butt" d="m50.31496 35.54331l0 0c0 4.000801 -9.095318 7.244095 -20.31496 7.244095c-11.219643 0 -20.31496 -3.2432938 -20.31496 -7.244095l0 0c4.7957115 2.2801323 12.322107 3.6220474 20.31496 3.6220474c7.9928513 0 15.519249 -1.3419151 20.31496 -3.6220474z" fill-rule="evenodd"/><path fill="#85200c" d="m44.220474 42.787403l0 0c0 2.80056 -6.366726 5.0708656 -14.220474 5.0708656c-7.85375 0 -14.220472 -2.2703056 -14.220472 -5.0708656l0 0c3.3569984 1.5960922 8.625475 2.535431 14.220472 2.535431c5.5949974 0 10.863476 -0.9393387 14.220474 -2.535431z" fill-rule="evenodd"/><path stroke="#000000" stroke-width="1.0" stroke-linejoin="round" stroke-linecap="butt" d="m44.220474 42.787403l0 0c0 2.80056 -6.366726 5.0708656 -14.220474 5.0708656c-7.85375 0 -14.220472 -2.2703056 -14.220472 -5.0708656l0 0c3.3569984 1.5960922 8.625475 2.535431 14.220472 2.535431c5.5949974 0 10.863476 -0.9393387 14.220474 -2.535431z" fill-rule="evenodd"/></g></svg>