<svg version="1.1" viewBox="0.0 0.0 60.0 60.0" fill="none" stroke="none" stroke-linecap="square" stroke-miterlimit="10" xmlns:xlink="http://www.w3.org/1999/xlink" xmlns="http://www.w3.org/2000/svg"><clipPath id="p.0"><path d="m0 0l60.0 0l0 60.0l-60.0 0l0 -60.0z" clip-rule="nonzero"/></clipPath><g clip-path="url(#p.0)"><path fill="#000000" fill-opacity="0.0" d="m0 0l60.0 0l0 60.0l-60.0 0z" fill-rule="evenodd"/><defs><linearGradient id="p.1" gradientUnits="userSpaceOnUse" gradientTransform="matrix(0.0 -3.5803531776004416 3.5803531776004416 0.0 0.0 0.0)" spreadMethod="pad" x1="-10.903043211224942" y1="0.294687931450814" x2="-10.903056813225856" y2="3.875041109025418"><stop offset="0.0" stop-color="#e06666"/><stop offset="1.0" stop-color="#cc0000"/></linearGradient></defs><path fill="url(#p.1)" d="m13.874016 39.036747l-12.818897 -2.1574821l0 -4.3149605l12.818897 -2.1574802z" fill-rule="evenodd"/><path stroke="#000000" stroke-width="1.0" stroke-linejoin="round" stroke-linecap="butt" d="m13.874016 39.036747l-12.818897 -2.1574821l0 -4.3149605l12.818897 -2.1574802z" fill-rule="evenodd"/><defs><linearGradient id="p.2" gradientUnits="userSpaceOnUse" gradientTransform="matrix(1.4742047380176393 0.0 0.0 1.4742047380176393 0.0 0.0)" spreadMethod="pad" x1="20.072212778865936" y1="11.54228875376814" x2="20.07220756285468" y2="13.016493491776552"><stop offset="0.0" stop-color="#8c8c8c"/><stop offset="1.0" stop-color="#404040"/></linearGradient></defs><path fill="url(#p.2)" d="m29.590551 17.37796l0 0c0 -0.20004463 0.1621685 -0.36221123 0.36221123 -0.36221123l13.700775 0c0.09606171 0 0.18819427 0.038160324 0.2561226 0.10608864c0.0679245 0.067928314 0.10608673 0.16005707 0.10608673 0.2561226l0 1.4488049c0 0.20004272 -0.1621666 0.36221123 -0.36220932 0.36221123l-13.700775 0c-0.20004272 0 -0.36221123 -0.1621685 -0.36221123 -0.36221123z" fill-rule="evenodd"/><path stroke="#000000" stroke-width="1.0" stroke-linejoin="round" stroke-linecap="butt" d="m29.590551 17.37796l0 0c0 -0.20004463 0.1621685 -0.36221123 0.36221123 -0.36221123l13.700775 0c0.09606171 0 0.18819427 0.038160324 0.2561226 0.10608864c0.0679245 0.067928314 0.10608673 0.16005707 0.10608673 0.2561226l0 1.4488049c0 0.20004272 -0.1621666 0.36221123 -0.36220932 0.36221123l-13.700775 0c-0.20004272 0 -0.36221123 -0.1621685 -0.36221123 -0.36221123z" fill-rule="evenodd"/><defs><linearGradient id="p.3" gradientUnits="userSpaceOnUse" gradientTransform="matrix(3.8433973391546115 3.843397339154611 -3.843397339154611 3.8433973391546115 0.0 0.0)" spreadMethod="pad" x1="4.070784872257722" y1="-0.04712781510677484" x2="4.070771196771301" y2="3.7962695240235074"><stop offset="0.0" stop-color="#dfe9fb"/><stop offset="1.0" stop-color="#6e9be7"/></linearGradient></defs><path fill="url(#p.3)" d="m8.440898 22.85039l14.267716 -0.50393677l6.8818893 6.8818893l-28.535433 1.0078735z" fill-rule="evenodd"/><path stroke="#000000" stroke-width="1.0" stroke-linejoin="round" stroke-linecap="butt" d="m8.440898 22.85039l14.267716 -0.50393677l6.8818893 6.8818893l-28.535433 1.0078735z" fill-rule="evenodd"/><defs><linearGradient id="p.4" gradientUnits="userSpaceOnUse" gradientTransform="matrix(1.809883338371809 0.0 0.0 1.809883338371809 0.0 0.0)" spreadMethod="pad" x1="16.878743387918036" y1="10.595028676441501" x2="16.878736306919738" y2="12.404912014799457"><stop offset="0.0" stop-color="#bfbfbf"/><stop offset="1.0" stop-color="#737373"/></linearGradient></defs><path fill="url(#p.4)" d="m30.548557 19.721796l0 0c0 -0.30151558 0.24442673 -0.5459423 0.5459423 -0.5459423l23.002604 0c0.14479065 0 0.28365326 0.057518005 0.38603973 0.15990257c0.10238266 0.10238457 0.15990067 0.24124718 0.15990067 0.38603973l0 2.1837044c0 0.30151558 -0.24442673 0.5459423 -0.5459404 0.5459423l-23.002604 0l0 0c-0.30151558 0 -0.5459423 -0.24442673 -0.5459423 -0.5459423z" fill-rule="evenodd"/><path stroke="#000000" stroke-width="1.0" stroke-linejoin="round" stroke-linecap="butt" d="m30.548557 19.721796l0 0c0 -0.30151558 0.24442673 -0.5459423 0.5459423 -0.5459423l23.002604 0c0.14479065 0 0.28365326 0.057518005 0.38603973 0.15990257c0.10238266 0.10238457 0.15990067 0.24124718 0.15990067 0.38603973l0 2.1837044c0 0.30151558 -0.24442673 0.5459423 -0.5459404 0.5459423l-23.002604 0l0 0c-0.30151558 0 -0.5459423 -0.24442673 -0.5459423 -0.5459423z" fill-rule="evenodd"/><path fill="#9fc5e8" d="m16.82402 39.615746l0 0c11.28747 1.2530937 24.501648 0.6524849 33.289856 -1.5130844c8.788212 -2.1655731 11.352783 -5.453125 6.460804 -8.282183c-4.891979 -2.8290558 -16.23983 -4.6209164 -28.588106 -4.5141487c-12.348276 0.10676956 -23.171074 2.0903244 -27.265368 4.99708z" fill-rule="evenodd"/><path stroke="#000000" stroke-width="1.0" stroke-linejoin="round" stroke-linecap="butt" d="m16.82402 39.615746l0 0c11.28747 1.2530937 24.501648 0.6524849 33.289856 -1.5130844c8.788212 -2.1655731 11.352783 -5.453125 6.460804 -8.282183c-4.891979 -2.8290558 -16.23983 -4.6209164 -28.588106 -4.5141487c-12.348276 0.10676956 -23.171074 2.0903244 -27.265368 4.99708z" fill-rule="evenodd"/><defs><linearGradient id="p.5" gradientUnits="userSpaceOnUse" gradientTransform="matrix(6.582096072519834 0.0 0.0 6.582096072519834 0.0 0.0)" spreadMethod="pad" x1="7.562281341861075" y1="5.581433695837056" x2="0.9801852695155173" y2="5.581385797993392"><stop offset="0.0" stop-color="#a2c4c9"/><stop offset="1.0" stop-color="#3c78d8"/></linearGradient></defs><path fill="url(#p.5)" d="m49.775566 46.98458l0 0c-6.8226814 2.3971672 -19.01417 3.2106743 -29.29836 1.9550095c-10.28419 -1.2556648 -15.887268 -4.241829 -13.465214 -7.176296c2.4220543 -2.9344673 12.215971 -5.0257607 23.536566 -5.0257607z" fill-rule="evenodd"/><path stroke="#000000" stroke-width="1.0" stroke-linejoin="round" stroke-linecap="butt" d="m49.775566 46.98458l0 0c-6.8226814 2.3971672 -19.01417 3.2106743 -29.29836 1.9550095c-10.28419 -1.2556648 -15.887268 -4.241829 -13.465214 -7.176296c2.4220543 -2.9344673 12.215971 -5.0257607 23.536566 -5.0257607z" fill-rule="evenodd"/><path fill="#cfe2f3" d="m31.318464 13.715078c-3.5431252 0.93240166 -6.018255 4.128334 -6.0346527 7.792055c-0.016397476 3.663721 2.430025 6.8816814 5.9646626 7.8457603c3.5346375 0.9640789 7.2761307 -0.5661144 9.122192 -3.730791z" fill-rule="evenodd"/><path stroke="#000000" stroke-width="1.0" stroke-linejoin="round" stroke-linecap="butt" d="m31.318464 13.715078c-3.5431252 0.93240166 -6.018255 4.128334 -6.0346527 7.792055c-0.016397476 3.663721 2.430025 6.8816814 5.9646626 7.8457603c3.5346375 0.9640789 7.2761307 -0.5661144 9.122192 -3.730791z" fill-rule="evenodd"/><defs><radialGradient id="p.6" gradientUnits="userSpaceOnUse" gradientTransform="matrix(-2.859498470586365 -0.37968444423126496 -0.37968444423126496 2.859498470586365 0.0 0.0)" spreadMethod="pad" cx="-18.011255183820843" cy="8.908511711590894" fx="-18.011255183820843" fy="8.908511711590894" r="2.8594985008239746"><stop offset="0.0" stop-color="#3177ee"/><stop offset="1.0" stop-color="#113d8a"/></radialGradient></defs><path fill="url(#p.6)" d="m55.711285 33.320343l0 0c0.22613144 -1.6785984 -2.9889565 -3.4906101 -7.1811028 -4.047243q-3.7952766 -0.5039387 -7.5905495 -1.0078754q-0.20472717 1.5196857 -0.40945053 3.0393715l0 0c-0.22613144 1.6785965 2.9889565 3.4906082 7.1811028 4.047245l0 0c4.1921463 0.556633 7.7738686 -0.35290146 8.0 -2.031498z" fill-rule="evenodd"/><path stroke="#000000" stroke-width="1.0" stroke-linejoin="round" stroke-linecap="butt" d="m55.711285 33.320343l0 0c0.22613144 -1.6785984 -2.9889565 -3.4906101 -7.1811028 -4.047243q-3.7952766 -0.5039387 -7.5905495 -1.0078754q-0.20472717 1.5196857 -0.40945053 3.0393715l0 0c-0.22613144 1.6785965 2.9889565 3.4906082 7.1811028 4.047245l0 0c4.1921463 0.556633 7.7738686 -0.35290146 8.0 -2.031498z" fill-rule="evenodd"/></g></svg>